Normalized EMG Linear Envelopes
nRows=32
nColumns=17

endheader
time	        VM	        VL	        RF	       GRA	        TA	   ADDLONG	   SEMIMEM	      BFLH	        GM	        GL	       TFL	   GLUTMAX	   GLUTMED	      PIRI	    OBTINT	        QF	
1.83	  0.052615	  0.000000	  0.003725	  0.159510	  0.073870	  0.030217	  0.437083	  0.398801	  0.177752	  0.039295	  0.034303	  0.557278	  0.384811	  0.470284	  0.920953	  0.432293	
1.8305	  0.052631	  0.000000	  0.003743	  0.160823	  0.074846	  0.030511	  0.440761	  0.402082	  0.179955	  0.040110	  0.034501	  0.562017	  0.386555	  0.472670	  0.923040	  0.433921	
1.831	  0.052661	  0.000000	  0.003764	  0.162131	  0.075839	  0.030807	  0.444436	  0.405317	  0.182155	  0.040934	  0.034695	  0.566742	  0.388261	  0.475063	  0.925283	  0.435496	
1.8315	  0.052705	  0.000000	  0.003787	  0.163434	  0.076851	  0.031103	  0.448108	  0.408506	  0.184353	  0.041768	  0.034885	  0.571452	  0.389929	  0.477462	  0.927678	  0.437014	
1.832	  0.052764	  0.000000	  0.003812	  0.164731	  0.077880	  0.031401	  0.451778	  0.411648	  0.186547	  0.042611	  0.035070	  0.576150	  0.391558	  0.479867	  0.930220	  0.438476	
1.8325	  0.052838	  0.000000	  0.003840	  0.166023	  0.078927	  0.031699	  0.455447	  0.414745	  0.188736	  0.043464	  0.035251	  0.580835	  0.393147	  0.482279	  0.932904	  0.439879	
1.833	  0.052928	  0.000000	  0.003870	  0.167309	  0.079993	  0.031998	  0.459115	  0.417796	  0.190921	  0.044326	  0.035426	  0.585506	  0.394696	  0.484696	  0.935724	  0.441223	
1.8335	  0.053036	  0.000000	  0.003903	  0.168589	  0.081076	  0.032298	  0.462783	  0.420801	  0.193099	  0.045197	  0.035597	  0.590164	  0.396206	  0.487120	  0.938677	  0.442505	
1.834	  0.053162	  0.000000	  0.003938	  0.169862	  0.082176	  0.032598	  0.466451	  0.423762	  0.195272	  0.046078	  0.035763	  0.594809	  0.397676	  0.489550	  0.941756	  0.443726	
1.8345	  0.053307	  0.000000	  0.003975	  0.171130	  0.083295	  0.032899	  0.470118	  0.426680	  0.197437	  0.046967	  0.035924	  0.599439	  0.399106	  0.491987	  0.944957	  0.444885	
1.835	  0.053473	  0.000000	  0.004015	  0.172392	  0.084432	  0.033201	  0.473786	  0.429555	  0.199595	  0.047865	  0.036079	  0.604055	  0.400496	  0.494431	  0.948275	  0.445980	
1.8355	  0.053658	  0.000000	  0.004057	  0.173647	  0.085587	  0.033503	  0.477453	  0.432389	  0.201745	  0.048772	  0.036229	  0.608655	  0.401846	  0.496881	  0.951706	  0.447012	
1.836	  0.053866	  0.000000	  0.004101	  0.174895	  0.086760	  0.033806	  0.481121	  0.435183	  0.203885	  0.049688	  0.036372	  0.613239	  0.403156	  0.499339	  0.955245	  0.447980	
1.8365	  0.054096	  0.000000	  0.004147	  0.176137	  0.087950	  0.034109	  0.484788	  0.437938	  0.206017	  0.050612	  0.036511	  0.617805	  0.404425	  0.501802	  0.958887	  0.448884	
1.837	  0.054349	  0.000000	  0.004195	  0.177372	  0.089159	  0.034413	  0.488455	  0.440654	  0.208139	  0.051545	  0.036643	  0.622353	  0.405654	  0.504272	  0.962628	  0.449723	
1.8375	  0.054626	  0.000000	  0.004246	  0.178601	  0.090385	  0.034717	  0.492122	  0.443334	  0.210250	  0.052485	  0.036768	  0.626880	  0.406842	  0.506747	  0.966464	  0.450498	
1.838	  0.054929	  0.000000	  0.004299	  0.179823	  0.091630	  0.035021	  0.495788	  0.445977	  0.212350	  0.053434	  0.036888	  0.631385	  0.407989	  0.509227	  0.970390	  0.451209	
1.8385	  0.055257	  0.000000	  0.004354	  0.181038	  0.092893	  0.035326	  0.499454	  0.448585	  0.214440	  0.054391	  0.037001	  0.635867	  0.409095	  0.511712	  0.974401	  0.451856	
1.839	  0.055611	  0.000000	  0.004411	  0.182246	  0.094173	  0.035632	  0.503120	  0.451159	  0.216517	  0.055356	  0.037107	  0.640324	  0.410159	  0.514202	  0.978496	  0.452441	
1.8395	  0.055993	  0.000000	  0.004471	  0.183448	  0.095471	  0.035938	  0.506785	  0.453698	  0.218583	  0.056328	  0.037206	  0.644755	  0.411181	  0.516697	  0.982670	  0.452962	
1.84	  0.056403	  0.000000	  0.004532	  0.184643	  0.096787	  0.036244	  0.510450	  0.456206	  0.220636	  0.057309	  0.037299	  0.649157	  0.412160	  0.519197	  0.986920	  0.453421	
1.8405	  0.056841	  0.000000	  0.004596	  0.185832	  0.098121	  0.036550	  0.514115	  0.458681	  0.222676	  0.058296	  0.037384	  0.653528	  0.413096	  0.521703	  0.991242	  0.453819	
1.841	  0.057309	  0.000000	  0.004662	  0.187013	  0.099473	  0.036857	  0.517778	  0.461125	  0.224703	  0.059290	  0.037462	  0.657866	  0.413988	  0.524215	  0.995634	  0.454155	
1.8415	  0.057807	  0.000000	  0.004730	  0.188188	  0.100842	  0.037163	  0.521440	  0.463539	  0.226716	  0.060292	  0.037533	  0.662171	  0.414836	  0.526735	  1.000093	  0.454430	
1.842	  0.058335	  0.000000	  0.004800	  0.189356	  0.102229	  0.037471	  0.525101	  0.465923	  0.228714	  0.061300	  0.037596	  0.666439	  0.415639	  0.529262	  1.004614	  0.454646	
1.8425	  0.058895	  0.000000	  0.004872	  0.190517	  0.103633	  0.037778	  0.528760	  0.468278	  0.230698	  0.062315	  0.037651	  0.670669	  0.416397	  0.531798	  1.009195	  0.454802	
1.843	  0.059487	  0.000000	  0.004946	  0.191670	  0.105054	  0.038085	  0.532417	  0.470605	  0.232666	  0.063336	  0.037699	  0.674858	  0.417108	  0.534344	  1.013832	  0.454901	
1.8435	  0.060112	  0.000000	  0.005022	  0.192816	  0.106493	  0.038392	  0.536071	  0.472905	  0.234619	  0.064363	  0.037740	  0.679007	  0.417773	  0.536900	  1.018521	  0.454944	
1.844	  0.060770	  0.000155	  0.005101	  0.193955	  0.107950	  0.038700	  0.539722	  0.475177	  0.236555	  0.065396	  0.037773	  0.683111	  0.418391	  0.539467	  1.023258	  0.454932	
1.8445	  0.061462	  0.000423	  0.005181	  0.195085	  0.109424	  0.039007	  0.543368	  0.477424	  0.238475	  0.066434	  0.037798	  0.687170	  0.418960	  0.542045	  1.028039	  0.454867	
1.845	  0.062188	  0.000711	  0.005264	  0.196207	  0.110915	  0.039314	  0.547010	  0.479644	  0.240379	  0.067477	  0.037816	  0.691182	  0.419482	  0.544634	  1.032859	  0.454752	
1.8455	  0.062950	  0.001020	  0.005348	  0.197319	  0.112424	  0.039621	  0.550646	  0.481840	  0.242266	  0.068525	  0.037826	  0.695145	  0.419954	  0.547235	  1.037713	  0.454586	
